<svg width="24" height="24" viewBox="0 0 24 24" fill="none" xmlns="http://www.w3.org/2000/svg">
<path d="M17 16.99C15.65 16.99 14.8 17.41 14.05 17.79C13.4 18.12 12.87 18.39 12 18.39C11.1 18.39 10.6 18.14 9.95 17.79C9.2 17.41 8.38 16.99 7 16.99C5.62 16.99 4.8 17.41 4.05 17.79C3.62 18.01 3.24 18.2 2.78 18.31C2.33 18.41 2 18.77 2 19.22V19.32C2 19.92 2.56 20.35 3.14 20.23C3.88 20.08 4.44 19.8 4.95 19.54C5.6 19.21 6.12 18.94 7 18.94C7.88 18.94 8.4 19.19 9.05 19.54C9.8 19.92 10.62 20.34 12 20.34C13.38 20.34 14.2 19.92 14.95 19.54C15.6 19.21 16.13 18.94 17 18.94C17.9 18.94 18.4 19.19 19.05 19.54C19.57 19.8 20.13 20.09 20.88 20.24C21.0151 20.2663 21.1543 20.2627 21.2879 20.2294C21.4214 20.196 21.546 20.1337 21.6528 20.0469C21.7597 19.9601 21.8461 19.8509 21.9061 19.727C21.9661 19.6032 21.9982 19.4676 22 19.33V19.24C22 18.78 21.66 18.42 21.21 18.32C20.75 18.22 20.38 18.03 19.95 17.8C19.2 17.41 18.35 16.99 17 16.99ZM17 12.54C15.65 12.54 14.8 12.97 14.05 13.34C13.4 13.66 12.87 13.94 12 13.94C11.1 13.94 10.6 13.69 9.95 13.34C9.2 12.96 8.38 12.54 7 12.54C5.62 12.54 4.8 12.97 4.05 13.34C3.62 13.55 3.24 13.75 2.77 13.86C2.33 13.96 2 14.32 2 14.77V14.87C2.00006 15.0082 2.03092 15.1447 2.09035 15.2695C2.14978 15.3942 2.23628 15.5042 2.34355 15.5914C2.45082 15.6785 2.57617 15.7407 2.71049 15.7733C2.8448 15.8059 2.9847 15.8082 3.12 15.78C3.87 15.63 4.43 15.34 4.95 15.09C5.6 14.74 6.1 14.49 7 14.49C7.9 14.49 8.4 14.74 9.05 15.09C9.8 15.47 10.62 15.89 12 15.89C13.38 15.89 14.2 15.46 14.95 15.09C15.6 14.74 16.1 14.49 17 14.49C17.9 14.49 18.4 14.74 19.05 15.09C19.57 15.35 20.13 15.64 20.88 15.79C21.0159 15.8165 21.156 15.8127 21.2903 15.7787C21.4245 15.7448 21.5497 15.6816 21.6567 15.5937C21.7637 15.5058 21.8499 15.3954 21.9093 15.2703C21.9686 15.1451 21.9996 15.0085 22 14.87V14.78C22 14.32 21.66 13.96 21.21 13.86C20.75 13.76 20.38 13.57 19.95 13.34C19.2 12.96 18.35 12.54 17 12.54ZM19.95 4.45997C19.2 4.07997 18.37 3.65997 17 3.65997C15.63 3.65997 14.8 4.07997 14.05 4.45997C13.4 4.77997 12.87 5.05997 12 5.05997C11.1 5.05997 10.6 4.80997 9.95 4.45997C9.2 4.08997 8.38 3.65997 7 3.65997C5.62 3.65997 4.8 4.07997 4.05 4.45997C3.62 4.67997 3.24 4.86997 2.78 4.97997C2.33 5.07997 2 5.43997 2 5.88997V5.95997C2 6.55997 2.54 6.99997 3.12 6.87997C3.87 6.72997 4.43 6.43997 4.95 6.18997C5.6 5.85997 6.12 5.58997 7 5.58997C7.88 5.58997 8.4 5.83997 9.05 6.18997C9.8 6.56997 10.62 6.98997 12 6.98997C13.38 6.98997 14.2 6.55997 14.95 6.18997C15.6 5.86997 16.13 5.58997 17 5.58997C17.9 5.58997 18.4 5.83997 19.05 6.18997C19.57 6.44997 20.13 6.73997 20.88 6.88997C21.0159 6.91649 21.156 6.91265 21.2903 6.87873C21.4245 6.8448 21.5497 6.78163 21.6567 6.69373C21.7637 6.60583 21.8499 6.49537 21.9093 6.37026C21.9686 6.24514 21.9996 6.10845 22 5.96997V5.87997C22 5.41997 21.66 5.05997 21.21 4.95997C20.75 4.85997 20.38 4.67997 19.95 4.45997ZM17 8.08997C15.65 8.08997 14.8 8.51997 14.05 8.88997C13.4 9.23997 12.9 9.48997 12 9.48997C11.1 9.48997 10.6 9.23997 9.95 8.88997C9.2 8.50997 8.38 8.08997 7 8.08997C5.62 8.08997 4.8 8.51997 4.05 8.88997C3.62 9.11997 3.25 9.30997 2.79 9.40997C2.34 9.50997 2 9.86997 2 10.33V10.42C2.00006 10.5582 2.03092 10.6947 2.09035 10.8195C2.14978 10.9442 2.23628 11.0542 2.34355 11.1414C2.45082 11.2285 2.57617 11.2907 2.71049 11.3233C2.8448 11.3559 2.9847 11.3582 3.12 11.33C3.87 11.18 4.43 10.89 4.95 10.64C5.6 10.32 6.13 10.04 7 10.04C7.87 10.04 8.4 10.29 9.05 10.64C9.8 11.02 10.62 11.44 12 11.44C13.38 11.44 14.2 11.01 14.95 10.64C15.6 10.32 16.13 10.04 17 10.04C17.9 10.04 18.4 10.29 19.05 10.64C19.57 10.9 20.13 11.19 20.88 11.34C21.0151 11.3663 21.1543 11.3627 21.2879 11.3294C21.4214 11.296 21.546 11.2337 21.6528 11.1469C21.7597 11.0601 21.8461 10.9509 21.9061 10.827C21.9661 10.7032 21.9982 10.5676 22 10.43V10.34C22 9.87997 21.66 9.51997 21.21 9.41997C20.75 9.31997 20.38 9.12997 19.95 8.89997C19.2 8.50997 18.35 8.08997 17 8.08997Z" fill="url(#paint0_linear_18_413)"/>
<defs>
<linearGradient id="paint0_linear_18_413" x1="12" y1="3.65997" x2="12" y2="20.34" gradientUnits="userSpaceOnUse">
<stop stop-color="#FFBF00"/>
<stop offset="1" stop-color="#F2A50C"/>
</linearGradient>
</defs>
</svg>
