<svg width="22" height="22" viewBox="0 0 22 22" fill="none" xmlns="http://www.w3.org/2000/svg">
<path d="M11 7C8.79 7 7 8.79 7 11C7 13.21 8.79 15 11 15C13.21 15 15 13.21 15 11C15 8.79 13.21 7 11 7ZM19.94 10C19.7135 7.97212 18.8042 6.08154 17.3613 4.63869C15.9185 3.19585 14.0279 2.28651 12 2.06V1C12 0.45 11.55 0 11 0C10.45 0 10 0.45 10 1V2.06C7.97212 2.28651 6.08154 3.19585 4.63869 4.63869C3.19585 6.08154 2.28651 7.97212 2.06 10H1C0.45 10 0 10.45 0 11C0 11.55 0.45 12 1 12H2.06C2.28651 14.0279 3.19585 15.9185 4.63869 17.3613C6.08154 18.8042 7.97212 19.7135 10 19.94V21C10 21.55 10.45 22 11 22C11.55 22 12 21.55 12 21V19.94C14.0279 19.7135 15.9185 18.8042 17.3613 17.3613C18.8042 15.9185 19.7135 14.0279 19.94 12H21C21.55 12 22 11.55 22 11C22 10.45 21.55 10 21 10H19.94ZM11 18C7.13 18 4 14.87 4 11C4 7.13 7.13 4 11 4C14.87 4 18 7.13 18 11C18 14.87 14.87 18 11 18Z" fill="url(#paint0_linear_11_57)"/>
<defs>
<linearGradient id="paint0_linear_11_57" x1="11" y1="0" x2="11" y2="22" gradientUnits="userSpaceOnUse">
<stop stop-color="#FFBF00"/>
<stop offset="1" stop-color="#F2A50C"/>
</linearGradient>
</defs>
</svg>
