<svg width="16" height="16" viewBox="0 0 16 16" fill="none" xmlns="http://www.w3.org/2000/svg">
<path d="M14.0245 10.717L11.9075 10.475C11.6587 10.4458 11.4066 10.4734 11.17 10.5557C10.9334 10.638 10.7185 10.7728 10.5415 10.95L9.00751 12.483C6.64221 11.2799 4.71963 9.3573 3.51651 6.992L5.05751 5.45C5.41651 5.092 5.59151 4.592 5.53251 4.083L5.29151 1.983C5.24415 1.57641 5.04893 1.20143 4.74301 0.929441C4.4371 0.657456 4.04185 0.507456 3.63251 0.507997H2.19151C1.24951 0.507997 0.466513 1.292 0.524513 2.233C0.966513 9.35 6.65751 15.033 13.7665 15.475C14.7075 15.533 15.4915 14.75 15.4915 13.808V12.367C15.4936 11.9594 15.3449 11.5655 15.0741 11.2609C14.8033 10.9564 14.4295 10.7626 14.0245 10.717Z" fill="url(#paint0_linear_32_368)"/>
<defs>
<linearGradient id="paint0_linear_32_368" x1="8.00651" y1="0.507996" x2="8.00651" y2="15.478" gradientUnits="userSpaceOnUse">
<stop stop-color="#FFBF00"/>
<stop offset="1" stop-color="#F2A50C"/>
</linearGradient>
</defs>
</svg>
